<svg width="361" height="279" viewBox="0 0 361 279" fill="none" xmlns="http://www.w3.org/2000/svg">
<g clip-path="url(#clip0_25_69)">
<path d="M192.769 208.423C191.795 214.318 186.665 218.832 180.5 218.832C174.335 218.832 169.2 214.318 168.231 208.423H136.835V276.461H224.165V208.423H192.769Z" fill="#DFDFDF"/>
<path d="M146.985 276.208H138.354V277.733H146.985V276.208Z" fill="#BCB9CB"/>
<path d="M223.4 276.461H214.769V277.986H223.4V276.461Z" fill="#BCB9CB"/>
<path d="M224.418 271.067H137.088V273.434H224.418V271.067Z" fill="#2F2E41"/>
<path d="M356.129 210.201H4.87124C2.18518 210.201 0 208.016 0 205.33V4.87173C0 2.18567 2.18518 0.000488281 4.87124 0.000488281H356.129C358.815 0.000488281 361 2.18567 361 4.87173V205.336C361 208.022 358.815 210.207 356.129 210.207V210.201Z" fill="#2F2E41"/>
<path d="M352.617 8.63086H8.88391V202.583H352.617V8.63086Z" fill="white"/>
<path d="M180.951 71.3187H159.81C153.166 71.3187 147.761 65.9135 147.761 59.2699C147.761 52.6263 153.166 47.2212 159.81 47.2212H180.951C187.595 47.2212 193 52.6263 193 59.2699C193 65.9135 187.595 71.3187 180.951 71.3187Z" fill="#DFDFDF"/>
<path d="M160.233 68.5721C165.371 68.5721 169.536 64.4073 169.536 59.2699C169.536 54.1325 165.371 49.9678 160.233 49.9678C155.096 49.9678 150.931 54.1325 150.931 59.2699C150.931 64.4073 155.096 68.5721 160.233 68.5721Z" fill="white"/>
<path d="M180.951 154.361H159.81C153.166 154.361 147.761 148.956 147.761 142.312C147.761 135.669 153.166 130.264 159.81 130.264H180.951C187.595 130.264 193 135.669 193 142.312C193 148.956 187.595 154.361 180.951 154.361Z" fill="#DFDFDF"/>
<path d="M160.233 151.615C165.371 151.615 169.536 147.45 169.536 142.312C169.536 137.175 165.371 133.01 160.233 133.01C155.096 133.01 150.931 137.175 150.931 142.312C150.931 147.45 155.096 151.615 160.233 151.615Z" fill="white"/>
<path d="M180.951 112.76H159.81C153.166 112.76 147.761 107.355 147.761 100.711C147.761 94.0677 153.166 88.6626 159.81 88.6626H180.951C187.595 88.6626 193 94.0677 193 100.711C193 107.355 187.595 112.76 180.951 112.76Z" fill="#DFDFDF"/>
<path d="M180.296 110.013C185.434 110.013 189.598 105.849 189.598 100.711C189.598 95.5739 185.434 91.4092 180.296 91.4092C175.159 91.4092 170.994 95.5739 170.994 100.711C170.994 105.849 175.159 110.013 180.296 110.013Z" fill="#6C63FF"/>
<path d="M82.0129 278.256C82.0129 278.531 82.2331 278.757 82.5138 278.757H278.481C278.756 278.757 278.982 278.536 278.982 278.256C278.982 277.975 278.761 277.755 278.481 277.755H82.5138C82.2386 277.755 82.0129 277.975 82.0129 278.256Z" fill="#2F2E43"/>
<path d="M219.586 109.105L210.261 112.171V98.7461H218.721L219.586 109.105Z" fill="#F2A7AA"/>
<path d="M211.417 102.462C216.549 102.462 220.708 98.3019 220.708 93.1705C220.708 88.0392 216.549 83.8794 211.417 83.8794C206.286 83.8794 202.126 88.0392 202.126 93.1705C202.126 98.3019 206.286 102.462 211.417 102.462Z" fill="#F2A7AA"/>
<path d="M213.966 92.2512C212.408 92.2016 211.39 90.6329 210.784 89.1963C210.179 87.7597 209.557 86.114 208.115 85.5195C206.937 85.0351 204.856 88.3101 203.92 87.435C202.952 86.5268 203.898 81.8592 204.928 81.017C205.957 80.1749 207.366 80.0153 208.693 79.9547C211.929 79.8061 215.188 80.0648 218.364 80.7308C220.329 81.1381 222.349 81.7546 223.763 83.1747C225.558 84.9746 226.014 87.6937 226.146 90.2311C226.279 92.8291 226.13 95.5482 224.864 97.8214C223.598 100.095 220.956 101.773 218.424 101.19C218.171 99.814 218.424 98.3994 218.529 97.0013C218.628 95.6032 218.529 94.0951 217.67 92.9777C216.811 91.8604 214.995 91.4255 213.999 92.4108" fill="#36344E"/>
<path d="M225.398 95.4715C226.328 94.7889 227.44 94.222 228.585 94.3596C229.823 94.5082 230.864 95.5265 231.183 96.7319C231.502 97.9374 231.144 99.2639 230.379 100.249C229.614 101.234 228.48 101.884 227.275 102.209C226.581 102.396 225.816 102.473 225.156 102.192C224.176 101.774 223.653 100.524 224.033 99.5281" fill="#36344E"/>
<path d="M216.509 258.468H207.773V270.858H216.509V258.468Z" fill="#F2A7AA"/>
<path d="M199.264 278.36C198.345 278.36 197.53 278.338 196.914 278.283C194.591 278.068 192.378 276.356 191.266 275.354C190.765 274.903 190.606 274.188 190.864 273.571C191.052 273.125 191.426 272.795 191.888 272.663L198.02 270.913L207.95 264.214L208.06 264.412C208.104 264.484 209.078 266.239 209.403 267.428C209.529 267.88 209.496 268.254 209.304 268.546C209.171 268.749 208.99 268.865 208.841 268.931C209.023 269.118 209.584 269.498 211.318 269.779C213.85 270.18 214.384 267.555 214.406 267.445L214.423 267.357L214.5 267.307C215.705 266.531 216.448 266.179 216.701 266.256C216.861 266.305 217.131 266.383 217.846 273.533C217.918 273.758 218.424 275.404 218.077 276.973C217.703 278.684 210.228 278.096 208.737 277.958C208.693 277.958 203.095 278.36 199.264 278.36Z" fill="#36344E"/>
<path d="M241.377 248.729L233.965 253.351L240.522 263.864L247.934 259.242L241.377 248.729Z" fill="#F2A7AA"/>
<path d="M231.535 276.659C230.511 276.659 229.57 276.538 228.898 276.417C228.238 276.301 227.721 275.779 227.616 275.112C227.539 274.639 227.682 274.16 228.001 273.802L232.278 269.074L237.155 258.137L237.353 258.248C237.43 258.286 239.186 259.26 240.089 260.097C240.435 260.416 240.606 260.752 240.6 261.099C240.6 261.341 240.507 261.534 240.413 261.671C240.666 261.737 241.343 261.759 242.962 261.077C245.323 260.08 244.387 257.571 244.343 257.466L244.31 257.383L244.349 257.301C244.96 256.002 245.4 255.314 245.659 255.242C245.818 255.198 246.088 255.127 250.48 260.807C250.662 260.956 251.961 262.089 252.501 263.603C253.089 265.254 246.435 268.706 245.097 269.383C245.059 269.416 238.09 274.479 235.234 275.916C234.1 276.489 232.757 276.665 231.535 276.665V276.659Z" fill="#36344E"/>
<path d="M222.938 154.84H198.482L196.264 177.589L205.973 261.644H218.457L213.465 213.097L233.715 256.927L244.811 249.16L228.998 208.242C228.998 208.242 234.645 172.596 230.209 163.718C225.772 154.84 222.938 154.84 222.938 154.84Z" fill="#36344E"/>
<path d="M235.102 156.227H196.264L207.916 106.012H224.836L235.102 156.227Z" fill="#6C63FF"/>
<path d="M186.621 105.027C185.999 101.972 187.138 99.1812 189.153 98.7959C191.173 98.4106 193.308 100.574 193.93 103.629C194.194 104.845 194.156 106.106 193.809 107.311L196.264 120.284L189.918 121.286L188.173 108.39C187.386 107.404 186.852 106.254 186.621 105.027Z" fill="#F2A7AA"/>
<path d="M224.424 106.012H209.502L199.44 126.13L195.648 111.054L187.309 111.94C187.309 111.94 189.279 141.398 197.904 140.402C206.529 139.406 226.636 112.864 224.424 106.012Z" fill="#6C63FF"/>
<path d="M241.09 182.532C241.712 185.587 240.573 188.377 238.558 188.763C236.538 189.148 234.403 186.985 233.781 183.93C233.517 182.714 233.555 181.453 233.902 180.248L231.447 167.274L237.793 166.272L239.538 179.169C240.325 180.154 240.859 181.304 241.09 182.532Z" fill="#F2A7AA"/>
<path d="M215.92 106.012C215.92 106.012 224.402 105.654 224.842 106.012C227.154 107.905 240.733 176.102 240.733 176.102H232.135L215.925 106.012H215.92Z" fill="#6C63FF"/>
</g>
<defs>
<clipPath id="clip0_25_69">
<rect width="361" height="278.756" fill="white"/>
</clipPath>
</defs>
</svg>
