<svg width="30" height="34" viewBox="0 0 30 34" fill="none" xmlns="http://www.w3.org/2000/svg">
<path d="M23.375 21.25C21.8737 21.25 20.4938 21.7692 19.4046 22.6376L12.5989 18.384C12.8004 17.4723 12.8004 16.5276 12.5989 15.616L19.4046 11.3624C20.4938 12.2308 21.8737 12.75 23.375 12.75C26.8958 12.75 29.75 9.89579 29.75 6.375C29.75 2.85421 26.8958 0 23.375 0C19.8542 0 17 2.85421 17 6.375C17 6.85034 17.0525 7.31332 17.1511 7.75897L10.3454 12.0126C9.25617 11.1442 7.87631 10.625 6.375 10.625C2.85421 10.625 0 13.4792 0 17C0 20.5208 2.85421 23.375 6.375 23.375C7.87631 23.375 9.25617 22.8558 10.3454 21.9874L17.1511 26.241C17.0505 26.6955 16.9999 27.1595 17 27.625C17 31.1458 19.8542 34 23.375 34C26.8958 34 29.75 31.1458 29.75 27.625C29.75 24.1042 26.8958 21.25 23.375 21.25Z" fill="white"/>
</svg>
